<svg xmlns="http://www.w3.org/2000/svg" width="222" height="56" fill="none"><path fill="url(#a)" d="M7.15 28.307c0 5.234 2.175 9.964 5.679 13.353.988.956 1.471 2.329 1.471 3.704 0 2.013-2.475 4.622-4.08 3.407C4.007 44.066 0 36.65 0 28.307c0-9.312 4.993-17.47 12.473-21.99 1.359-.822 3.053.076 3.817 1.468.913 1.663.513 4.117-1.05 5.194-4.89 3.372-8.09 8.98-8.09 15.328Z"/><path fill="url(#b)" d="M35.718 7.789c-.914 1.662-.515 4.116 1.047 5.194 4.887 3.372 8.085 8.978 8.085 15.324 0 6.424-3.277 12.089-8.265 15.447a1.934 1.934 0 0 0-.835 1.61c0 2.325 2.672 5.683 4.616 4.405C47.378 45.158 52 37.267 52 28.307c0-9.309-4.99-17.464-12.465-21.986-1.359-.822-3.053.076-3.817 1.468Z"/><path fill="url(#c)" d="M26.005 56c-2.513 0-4.55-2.018-4.55-4.506 0-2.488 2.037-4.505 4.55-4.505 2.512 0 4.55 2.017 4.55 4.505s-2.038 4.505-4.55 4.505Z"/><path fill="url(#d)" d="M26.005 9.01c-2.513 0-4.55-2.016-4.55-4.505 0-2.488 2.037-4.505 4.55-4.505 2.512 0 4.55 2.017 4.55 4.505 0 2.489-2.038 4.506-4.55 4.506Z"/><path fill="url(#e)" d="M26 37.968c-5.385 0-9.75-4.322-9.75-9.654s4.365-9.655 9.75-9.655 9.75 4.323 9.75 9.655c0 5.332-4.365 9.654-9.75 9.654Z"/><path fill="#F9F9F9" d="M78.582 41.644c-2.024 0-3.92-.383-5.688-1.148a14.98 14.98 0 0 1-4.66-3.268 16.343 16.343 0 0 1-3.122-4.9C64.37 30.442 64 28.426 64 26.277c0-2.12.37-4.107 1.112-5.961.77-1.855 1.81-3.474 3.121-4.857a14.068 14.068 0 0 1 4.661-3.268C74.662 11.397 76.558 11 78.582 11c1.625 0 3.178.28 4.66.839 1.511.53 2.866 1.325 4.063 2.384a11.641 11.641 0 0 1 2.865 3.71l-3.55 2.119c-.855-1.501-1.98-2.664-3.377-3.488-1.369-.854-2.98-1.28-4.832-1.28-1.397 0-2.695.279-3.892.838a9.941 9.941 0 0 0-3.164 2.34c-.884 1.001-1.582 2.179-2.095 3.533-.514 1.324-.77 2.752-.77 4.283 0 1.59.242 3.061.727 4.416.513 1.354 1.211 2.531 2.095 3.532a10.258 10.258 0 0 0 3.165 2.296c1.225.56 2.537.84 3.933.84 1.853 0 3.478-.413 4.875-1.237 1.397-.854 2.509-2.017 3.336-3.489l3.549 2.12a11.643 11.643 0 0 1-2.865 3.709 13.196 13.196 0 0 1-4.062 2.384c-1.483.53-3.036.795-4.661.795ZM102.116 41.644c-2.106 0-4-.515-5.679-1.546a11.608 11.608 0 0 1-4.013-4.109c-.996-1.738-1.494-3.652-1.494-5.743 0-2.092.498-3.991 1.494-5.7a11.246 11.246 0 0 1 4.013-4.064c1.68-1.031 3.573-1.547 5.679-1.547 2.106 0 3.999.516 5.678 1.547 1.68 1.001 3.003 2.37 3.971 4.108.967 1.709 1.451 3.594 1.451 5.656 0 2.09-.484 4.005-1.451 5.743a11.161 11.161 0 0 1-4.013 4.109c-1.68 1.03-3.558 1.546-5.636 1.546Zm0-4.153c1.309 0 2.476-.324 3.501-.972a6.913 6.913 0 0 0 2.476-2.606 7.57 7.57 0 0 0 .897-3.623c0-1.326-.299-2.533-.897-3.623a6.911 6.911 0 0 0-2.476-2.607c-1.025-.677-2.192-1.016-3.501-1.016-1.309 0-2.49.339-3.544 1.017a7.373 7.373 0 0 0-2.476 2.606c-.626 1.09-.94 2.297-.94 3.623 0 1.296.314 2.503.94 3.623a7.374 7.374 0 0 0 2.476 2.606c1.053.648 2.235.972 3.544.972ZM143.144 41.644c-2.107 0-3.999-.515-5.679-1.546a11.61 11.61 0 0 1-4.013-4.109c-.996-1.738-1.494-3.652-1.494-5.743 0-2.092.498-3.991 1.494-5.7a11.248 11.248 0 0 1 4.013-4.064c1.68-1.031 3.572-1.547 5.679-1.547 2.106 0 3.999.516 5.678 1.547 1.679 1.001 3.003 2.37 3.97 4.108.968 1.709 1.452 3.594 1.452 5.656 0 2.09-.484 4.005-1.452 5.743a11.146 11.146 0 0 1-4.013 4.109c-1.679 1.03-3.558 1.546-5.635 1.546Zm0-4.153c1.309 0 2.476-.324 3.501-.972a6.913 6.913 0 0 0 2.476-2.606 7.569 7.569 0 0 0 .896-3.623c0-1.326-.298-2.533-.896-3.623a6.911 6.911 0 0 0-2.476-2.607c-1.025-.677-2.192-1.016-3.501-1.016-1.31 0-2.491.339-3.544 1.017a7.367 7.367 0 0 0-2.476 2.606c-.627 1.09-.94 2.297-.94 3.623 0 1.296.313 2.503.94 3.623a7.37 7.37 0 0 0 2.476 2.606c1.053.648 2.234.972 3.544.972Z"/><path fill="#F9F9F9" d="M113.216 41.644V30.67l-4.221.53v10.444h4.221ZM154.244 41.644V30.67l-4.221.53v10.444h4.221ZM125.498 41.729c-1.707 0-3.156-.354-4.351-1.062a6.984 6.984 0 0 1-2.728-2.918c-.599-1.268-.897-2.727-.897-4.378v-19.5h4.222v19.367c0 1.415.371 2.52 1.11 3.317.767.796 1.776 1.194 3.028 1.194a6.23 6.23 0 0 0 2.046-.354c.71-.236 1.323-.545 1.835-.929v4.024c-.54.354-1.196.649-1.963.885a7.799 7.799 0 0 1-2.302.354Zm4.265-18.44h-16.378v-3.803h16.378v3.803ZM217.262 41.729c-1.707 0-3.156-.354-4.351-1.062a6.984 6.984 0 0 1-2.728-2.918c-.599-1.268-.897-2.727-.897-4.378v-19.5h4.221v19.367c0 1.415.372 2.52 1.11 3.317.768.796 1.776 1.194 3.029 1.194a6.23 6.23 0 0 0 2.046-.354c.71-.236 1.323-.545 1.834-.929v4.024c-.54.354-1.195.649-1.962.885a7.804 7.804 0 0 1-2.302.354Zm4.264-18.44h-16.377v-3.803h16.377v3.803ZM158.296 13.87h4.221v27.774h-4.221zM183.04 20.283l3.267 1.886-19.342 33.501-3.266-1.886z"/><path fill="#F9F9F9" d="m164.835 22.281 3.655-2.11 9.106 15.772-3.655 2.11zM190.98 40.702c1.621.567 3.377.851 5.268.851 1.918 0 3.512-.297 4.781-.891 1.297-.595 2.27-1.392 2.918-2.391.675-1 1.013-2.12 1.013-3.363 0-1.081-.257-2.026-.77-2.837-.513-.837-1.364-1.567-2.553-2.188-1.161-.621-2.755-1.135-4.781-1.54-1.459-.297-2.567-.594-3.323-.891-.756-.325-1.27-.676-1.54-1.054a2.552 2.552 0 0 1-.365-1.337c0-.784.406-1.378 1.216-1.783.838-.405 1.851-.608 3.039-.608 1.027 0 1.932.122 2.715.365.784.243 1.513.689 2.188 1.337l3.201-2.107c-.81-1-1.904-1.783-3.282-2.35-1.377-.568-2.958-.851-4.741-.851-1.377 0-2.701.23-3.971.689-1.269.432-2.31 1.107-3.12 2.026-.81.891-1.216 2.026-1.216 3.403 0 1.567.608 2.891 1.824 3.972 1.243 1.08 3.228 1.89 5.956 2.43 2.108.379 3.553.865 4.336 1.46.811.594 1.202 1.296 1.175 2.107-.027.81-.459 1.472-1.296 1.985-.811.514-1.999.77-3.566.77-1.243 0-2.377-.216-3.404-.648-.999-.46-1.729-.946-2.188-1.459l-3.242 2.674c.892.892 2.134 1.635 3.728 2.23Z"/><path fill="#F9F9F9" fill-rule="evenodd" d="M190.923 40.86h-.002c-1.609-.6-2.875-1.354-3.788-2.267l-.132-.132 3.511-2.895.108.12c.437.489 1.142.963 2.13 1.417 1.003.422 2.114.634 3.336.634 1.553 0 2.704-.255 3.475-.743l.001-.001h.001c.801-.492 1.192-1.107 1.217-1.848.024-.741-.329-1.395-1.107-1.965l-.001-.001h-.001c-.749-.569-2.159-1.05-4.263-1.428h-.003c-2.74-.543-4.76-1.361-6.035-2.47h-.001v-.001c-1.25-1.111-1.88-2.48-1.88-4.098 0-1.412.416-2.59 1.258-3.516.832-.942 1.897-1.632 3.19-2.073a11.755 11.755 0 0 1 4.027-.698c1.801 0 3.404.286 4.806.864 1.399.576 2.518 1.375 3.349 2.4l.117.144-3.469 2.284-.098-.093c-.659-.633-1.366-1.064-2.121-1.298-.764-.237-1.651-.357-2.665-.357-1.169 0-2.156.2-2.964.59-.386.193-.665.426-.847.694a1.62 1.62 0 0 0-.275.938c0 .454.113.868.337 1.244.244.338.721.672 1.463.99.743.292 1.838.586 3.292.883 2.034.406 3.645.924 4.827 1.556 1.205.63 2.083 1.377 2.617 2.248.532.84.796 1.818.796 2.926 0 1.274-.347 2.428-1.041 3.456-.669 1.03-1.668 1.846-2.988 2.45-1.298.608-2.918.908-4.852.908-1.908 0-3.683-.286-5.324-.86l-.001-.001Zm10.106-.198c1.297-.595 2.27-1.392 2.918-2.391.675-1 1.013-2.12 1.013-3.363 0-1.081-.257-2.026-.77-2.837-.513-.837-1.364-1.567-2.553-2.188-1.161-.621-2.755-1.135-4.781-1.54-1.459-.297-2.567-.594-3.323-.891-.756-.325-1.27-.676-1.54-1.054a2.552 2.552 0 0 1-.365-1.337c0-.784.406-1.378 1.216-1.783.838-.405 1.851-.608 3.039-.608 1.027 0 1.932.122 2.715.365.784.243 1.513.689 2.188 1.337l3.201-2.107a4.527 4.527 0 0 0-.108-.13c-.799-.938-1.857-1.678-3.174-2.22-1.377-.568-2.958-.851-4.741-.851-1.377 0-2.701.23-3.971.689-1.269.432-2.31 1.107-3.12 2.026-.81.891-1.216 2.026-1.216 3.403 0 1.567.608 2.891 1.824 3.972 1.243 1.08 3.228 1.89 5.956 2.43 2.108.379 3.553.865 4.336 1.46.811.594 1.202 1.296 1.175 2.107-.027.81-.459 1.472-1.296 1.985-.811.514-1.999.77-3.566.77-1.243 0-2.377-.216-3.404-.648-.999-.46-1.729-.946-2.188-1.459l-3.242 2.674.122.119c.881.839 2.083 1.542 3.606 2.11 1.621.567 3.377.851 5.268.851 1.918 0 3.512-.297 4.781-.891Z" clip-rule="evenodd"/><defs><linearGradient id="a" x1="25.983" x2="25.983" y1="-20.265" y2="60.272" gradientUnits="userSpaceOnUse"><stop stop-color="#78C7FF"/><stop offset="1" stop-color="#0BDCAC"/></linearGradient><linearGradient id="b" x1="25.983" x2="25.983" y1="-20.265" y2="60.272" gradientUnits="userSpaceOnUse"><stop stop-color="#78C7FF"/><stop offset="1" stop-color="#0BDCAC"/></linearGradient><linearGradient id="c" x1="25.983" x2="25.983" y1="-20.265" y2="60.272" gradientUnits="userSpaceOnUse"><stop stop-color="#78C7FF"/><stop offset="1" stop-color="#0BDCAC"/></linearGradient><linearGradient id="d" x1="25.983" x2="25.983" y1="-20.265" y2="60.272" gradientUnits="userSpaceOnUse"><stop stop-color="#78C7FF"/><stop offset="1" stop-color="#0BDCAC"/></linearGradient><linearGradient id="e" x1="25.983" x2="25.983" y1="-20.265" y2="60.272" gradientUnits="userSpaceOnUse"><stop stop-color="#78C7FF"/><stop offset="1" stop-color="#0BDCAC"/></linearGradient></defs></svg>